<?xml version="1.0" encoding="UTF-8"?>
<svg id="_Слой_2" data-name="Слой 2" xmlns="http://www.w3.org/2000/svg" viewBox="0 0 16.39 12.88">
  <defs>
    <style>
      .cls-1 {
        fill: #be8e57;
      }
    </style>
  </defs>
  <g id="_Слой_1-2" data-name="Слой 1">
    <path class="cls-1" d="M14.03,0H2.37C1.06,0,0,1.06,0,2.37v8.15c0,1.31,1.06,2.37,2.37,2.37h11.66c1.31,0,2.37-1.06,2.37-2.37V2.37c0-1.31-1.06-2.37-2.37-2.37ZM14.03,1.13c.1,0,.19.01.28.03l-4.92,5.58c-.3.34-.74.54-1.19.54s-.89-.2-1.19-.54L2.09,1.16c.09-.02.18-.03.28-.03h11.66ZM15.26,10.51c0,.68-.55,1.24-1.24,1.24H2.37c-.68,0-1.24-.55-1.24-1.24V2.37c0-.17.03-.32.09-.47l4.93,5.6c.52.59,1.26.92,2.04.92s1.52-.34,2.04-.92L15.17,1.9c.06.14.09.3.09.47v8.15Z"/>
  </g>
</svg>