<?xml version="1.0" encoding="UTF-8"?>
<svg id="_Слой_2" data-name="Слой 2" xmlns="http://www.w3.org/2000/svg" viewBox="0 0 25.04 25.05">
  <defs>
    <style>
      .cls-1 {
        fill: #ac73af;
      }
    </style>
  </defs>
  <g id="_Слой_1-2" data-name="Слой 1">
    <path class="cls-1" d="M13.34,25.03l-1.65.02-.23-.05C5.4,24.5.54,19.64.04,13.58l-.04-.23.02-1.67c.24-3.51,1.93-6.74,4.68-8.94,4.91-3.93,11.96-3.61,16.5.76,5,4.81,5.14,12.74.32,17.73-2.18,2.25-5.08,3.59-8.18,3.8ZM10.91,16.81v-3.65s2.44,0,2.44,0c.65,0,1.13.63,1.04,1.26l.08.3c.28.02.5.02.75-.04v-4.49c-.29-.04-.47-.04-.76-.03l-.06.45c.09.71-.45,1.28-1.14,1.28h-2.34s0-3.67,0-3.67c0-.46.34-.89.82-.89h3.18c.77,0,1.41.61,1.43,1.38l.02,1.08c.32.03.54.03.85,0l.25-3.17c.01-.18-.19-.34-.37-.34H7.25c-.13,0-.25.13-.25.23v.61c0,.09.15.22.25.22h.63c.51,0,.88.39.88.9v8.6c0,.51-.38.9-.88.9h-.63c-.1,0-.24.13-.24.22v.61c0,.1.11.23.25.23h9.96c.18,0,.32-.15.34-.3l.49-3.27c.01-.09-.1-.2-.18-.2h-.66s-.44,1.42-.44,1.42c-.23.73-.85,1.29-1.65,1.29h-3.37c-.48,0-.82-.43-.82-.91Z"/>
  </g>
</svg>