<?xml version="1.0" encoding="UTF-8"?>
<svg id="_Слой_2" data-name="Слой 2" xmlns="http://www.w3.org/2000/svg" viewBox="0 0 18.8 18.83">
  <defs>
    <style>
      .cls-1 {
        fill: #be8e57;
      }
    </style>
  </defs>
  <g id="_Слой_1-2" data-name="Слой 1">
    <path class="cls-1" d="M18.64,9L11.69,1.04c-.58-.66-1.41-1.04-2.29-1.04s-1.71.38-2.29,1.04L.16,9c-.17.19-.21.46-.1.69.11.23.34.38.59.38h1.19v8.1c0,.36.29.65.65.65h13.83c.36,0,.65-.29.65-.65v-8.1h1.19c.25,0,.49-.15.59-.38.11-.23.07-.5-.1-.69ZM8.09,1.89c.33-.38.81-.6,1.31-.6s.98.22,1.31.6l6.01,6.89H2.08L8.09,1.89ZM15.66,17.53H3.13v-7.45h12.53v7.45Z"/>
  </g>
</svg>