<?xml version="1.0" encoding="UTF-8"?>
<svg id="_Слой_2" data-name="Слой 2" xmlns="http://www.w3.org/2000/svg" viewBox="0 0 22.9 22.9">
  <defs>
    <style>
      .cls-1 {
        fill: #ac73af;
      }
    </style>
  </defs>
  <g id="_Слой_1-2" data-name="Слой 1">
    <g>
      <path class="cls-1" d="M17.51,4.09c-.74,0-1.34.6-1.34,1.34s.6,1.34,1.34,1.34,1.34-.6,1.34-1.34-.6-1.34-1.34-1.34Z"/>
      <path class="cls-1" d="M11.54,5.81c-3.11,0-5.64,2.53-5.64,5.64s2.53,5.64,5.64,5.64,5.64-2.53,5.64-5.64-2.53-5.64-5.64-5.64ZM11.54,15.06c-1.99,0-3.61-1.62-3.61-3.61s1.62-3.61,3.61-3.61,3.61,1.62,3.61,3.61-1.62,3.61-3.61,3.61Z"/>
      <path class="cls-1" d="M16.02,22.9H6.88c-3.79,0-6.88-3.09-6.88-6.88V6.88C0,3.09,3.09,0,6.88,0h9.14c3.79,0,6.88,3.09,6.88,6.88v9.14c0,3.79-3.09,6.88-6.88,6.88ZM6.88,2.15c-2.61,0-4.72,2.12-4.72,4.72v9.14c0,2.61,2.12,4.72,4.72,4.72h9.14c2.61,0,4.72-2.12,4.72-4.72V6.88c0-2.61-2.12-4.72-4.72-4.72H6.88Z"/>
    </g>
  </g>
</svg>