<?xml version="1.0" encoding="UTF-8"?>
<svg id="_Слой_2" data-name="Слой 2" xmlns="http://www.w3.org/2000/svg" viewBox="0 0 125.55 63">
  <defs>
    <style>
      .cls-1 {
        fill: #ac73af;
      }
    </style>
  </defs>
  <g id="_Слой_2-2" data-name=" Слой 2">
    <g id="_Слой_1-2" data-name=" Слой 1-2">
      <g>
        <path class="cls-1" d="M27.11,0l9.91,21.98L46.81.23,46.97,0h3.9s-.22.19-.22.19c-.85.45-1.3,1.28-1.29,2.22v1.97s.02,17.47.02,17.47c-.08,1.62-.1,2.75,1.47,3.58h-5.34s.7-.58.7-.58c.49-.41.67-1,.7-1.66l-.04-21.88-10.96,24.17L25.19,1.8l-.04,15.03c0,.71.02,1.31.09,1.99.26,2.04,1.87,4.06,3.91,4.29.58.07,1.09.4,1.28.95.17.48,0,.97-.31,1.34-.83.96-2.24.22-3.17-.6-1.06-.93-2.24-2.9-2.24-4.28V1.99c-.01-.79-.66-1.38-1.23-1.76L23.21,0h3.9Z"/>
        <path class="cls-1" d="M0,26.81v-.12s.36.05.36.05h3.36c.14,0,.24.05.34.18l9.8,21.77,9.78-21.74c.11-.16.24-.22.42-.22h3.64c-.84.5-1.5,1.19-1.5,2.19v21.02c0,.99.62,1.73,1.46,2.19h-5.39c.9-.46,1.43-1.18,1.48-2.19l-.04-21.95-10.97,24.2L2.03,28.54l-.03,16.42c.13,1.76.9,3.31,2.35,4.25.56.4,1.16.56,1.82.65.5.07.9.42,1.06.81.2.48.09.97-.22,1.37-.64.83-1.77.52-2.63-.07-1.24-.85-2.08-2.06-2.57-3.46-.11-.3-.27-.52-.27-.86v-18.44c.01-1.11-.53-2.02-1.54-2.41Z"/>
        <path class="cls-1" d="M125.55,50.46v.1c-.7,1-1.8,1.57-3.06,1.53-.57-.02-1.11-.06-1.64-.26-.75-.28-1.34-.81-1.69-1.54-.37-.77-.54-1.61-.54-2.49l-.03-4.49-.02-6.65h-2.34s0-.41,0-.41c1.25-.14,2.35-.68,3.29-1.54,1-.9,1.06-2.42.07-3.35-2.01-1.88-5.3-1.31-7.19.72-.6.64-.84,1.45-.79,2.32.07,1.22.51,2.38,1.39,3.24.3.29.66.5,1.02.73.52.34.81.9.64,1.55-.17.68-.97,1.16-1.67.96-.48-.14-.87-.47-1.17-.85-2-2.54-1.85-6.3.53-8.52,1.96-1.83,5.1-2.35,7.31-.75.8.65,1.29,1.59,1.3,2.64l.04,2.84h3.59s.01.42.01.42h-3.6s.02,11.49.02,11.49c0,.71.13,1.38.33,2.01.26.81.95,1.3,1.78,1.29.94,0,1.76-.36,2.4-.99Z"/>
        <path class="cls-1" d="M66.99,63h-1.31c-1.21-.17-2.31-.57-3.44-1.04l-1.99-.84c-2.04-.72-4.19-.73-6.21.04-.16.06-.31.09-.51.1,2.56-1.57,5.16-2.52,8.2-1.65l2.26.73,2.36.71c1.61.36,3.24.12,4.63-.76l1.16-.85c-.5.79-1.08,1.41-1.75,2-.99.86-2.14,1.36-3.41,1.55Z"/>
        <path class="cls-1" d="M98.3,37.96c1.3,1.21,2.03,2.82,2.01,4.59h-11.73c-.31,2.61.09,5.09,1.75,7.11,1.62,1.97,4.48,2.53,6.65,1.06,1.44-.98,2.42-2.53,3.29-4.03l2.72-4.71c.2-.35.23-.73.23-1.15v-11.79c0-1.03-.6-1.8-1.51-2.28.93-.08,1.84-.17,2.73-.41l1.22-.42v12.51c1.32-1.23,2.78-2.17,4.53-2.21l-1.83.85c-2.47,1.15-4.74,4.57-6.06,6.96l-1.75,3.18c-.56,1.02-1.21,1.94-2,2.79-1.15,1.23-2.64,1.96-4.31,2.06-4.16.25-7.83-2.76-8.36-6.85-.58-4.45,2.52-8.4,6.97-8.95,1.98-.25,3.92.27,5.44,1.69ZM97.91,42.13c.09-1.18-.07-2.21-.47-3.21-.27-.64-.66-1.17-1.22-1.56-2.08-1.35-4.81-.43-6.21,1.53-.68.96-1.13,2.03-1.33,3.24h9.24Z"/>
        <path class="cls-1" d="M88.54,16.05c0-1.31-.19-2.51-.66-3.68-.36-.89-1-1.63-1.91-1.97-2.69-.99-5.51.55-7.02,2.92v10.31c.01.92.69,1.57,1.49,1.99h-5.35s.5-.42.5-.42c.52-.43.88-.99.88-1.7v-10.9c0-.89-.38-1.63-1.11-2.15,1.26-.11,2.4-.31,3.57-.88l.03,2.67,1.14-1c1.13-.99,2.54-1.57,4.05-1.66,2.53-.14,4.93.59,6.01,3,.5,1.12.81,2.3.82,3.55l.05,7.25c0,1.01.58,1.76,1.48,2.23h-5.37c.74-.49,1.41-1.14,1.41-1.99l-.02-7.57Z"/>
        <path class="cls-1" d="M42.15,37.54c-.7.44-1.23.99-1.77,1.57-.38.41-.53.8-.53,1.38v9.46c.01,1,.61,1.74,1.48,2.18h-5.33c.71-.52,1.4-1.11,1.39-2.06v-11.13c-.01-.82-.47-1.48-1.11-1.95,1.25-.13,2.46-.35,3.56-.89l.02,2.65,1.27-1.09c1.24-1.06,2.75-1.56,4.39-1.58,2.52-.03,4.66.84,5.66,3.24.56,1.34.75,2.75.76,4.22v6.35c0,1,.55,1.73,1.47,2.23h-5.32c.94-.68,1.39-1.14,1.38-2.3l-.04-7.72c0-1.23-.26-2.41-.77-3.49s-1.39-1.72-2.51-1.91c-1.4-.24-2.79.07-4.01.83Z"/>
        <path class="cls-1" d="M74.82,41.32l.03.3,3.51,7.22,5.01-10.35c.22-.45.37-.95.26-1.42-.14-.58-.67-.78-1.23-.97h4.02c-1.03.38-1.87.97-2.35,1.96l-6.82,14.13-3.85-7.92-3.82,7.92-6.74-13.99c-.48-.99-1.15-1.75-2.3-2.02l-.03-.09h5.86c-.35.25-.8.34-.91.74-.17.62.04,1.24.32,1.82l4.91,10.17,1.45-2.87,1.02-2.29.95-1.98,1.51-2.99c.19-.38.35-.76.4-1.18s-.1-.91-.51-1.09l-.76-.33h3.98c-.93.36-1.69.89-2.21,1.72l-1.69,3.5Z"/>
        <path class="cls-1" d="M70.26,12.99c-.01-.73-.25-1.37-.82-1.82l-.73-.47c.91-.08,1.81-.17,2.72-.39l1.42-.47v3.12c-.88.94-1.63,1.9-2.3,2.99l-1.89,3.08-1.77,2.66c-.51.77-1.15,1.39-1.84,1.99-1.56,1.34-3.48,1.95-5.53,1.88-2.69-.08-5.17-1.28-6.77-3.43-2.5-3.37-1.74-8.09,1.66-10.54,1.13-.82,2.37-1.45,3.8-1.68,1.69-.27,3.4-.04,4.95.65,2.21.98,3.51,3.09,3.63,5.51h-12.56c-.33,2.66.13,5.12,1.88,7.1,1.01,1.14,2.36,1.77,3.89,1.83,2.47.09,4.46-1.32,5.99-3.18.75-.91,1.4-1.84,2.01-2.85l2.29-3.73-.03-2.26ZM64.11,15.69c.09-1.12-.02-2.09-.39-3.02-.45-1.17-1.39-1.99-2.62-2.22-1.23-.27-2.46-.08-3.57.52-1.8.99-2.79,2.67-3.21,4.72h9.79Z"/>
        <path class="cls-1" d="M105.59,23.97c1.15-.75,2.08-1.66,2.83-2.78l2.1-3.14.26.65-1.64,2.56c-.6.93-1.33,1.71-2.17,2.43-1.19,1.02-2.6,1.64-4.16,1.82-3.4.38-6.76-1.04-8.52-3.95-2.03-3.34-1.15-7.59,1.97-9.9,1.19-.88,2.5-1.56,4.02-1.76s3.16,0,4.64.6c1.59.65,2.76,1.91,3.37,3.5.26.67.43,1.34.37,2.09h-12.51s-.06,1.01-.06,1.01c-.15,2.55.62,4.98,2.56,6.67s4.8,1.59,6.94.2ZM106.05,15.68c.09-1.11-.01-2.12-.41-3.06-.47-1.2-1.44-1.97-2.71-2.21-1.9-.34-3.84.39-5.09,1.88-.81.97-1.33,2.11-1.57,3.39h9.79Z"/>
        <path class="cls-1" d="M29.09,52.13c.82-.45,1.47-1.15,1.47-2.12v-10.84c-.05-1-.58-1.74-1.5-2.17.85-.1,1.61-.18,2.4-.36l1.56-.53v13.84c0,.99.62,1.71,1.47,2.18h-5.41Z"/>
        <path class="cls-1" d="M54.86,52.13c.8-.51,1.43-1.13,1.44-2.06v-10.78c.02-1.04-.52-1.85-1.5-2.29l2.4-.36,1.57-.53v13.83c0,.99.61,1.7,1.48,2.19h-5.38Z"/>
        <path class="cls-1" d="M68.77,25.59l.69-.52c.47-.36.79-.94.79-1.57l.02-5.54,1.26-1.99c.15-.24.53-.27.8-.21.2.05.52.27.52.57v7.11c.01.98.71,1.73,1.59,2.14h-5.66Z"/>
        <path class="cls-1" d="M101.7,52.14l.36-.24c.64-.43,1.15-1.07,1.15-1.88l.02-6.12,1.08-1.63c.18-.27.53-.3.83-.22.21.06.51.31.51.64l.03,7.27c0,1,.59,1.63,1.52,2.17l-5.5.02Z"/>
        <path class="cls-1" d="M31.28,34.04c-.84-.12-1.31-.86-1.21-1.63s.83-1.3,1.66-1.2,1.31.84,1.21,1.61-.81,1.33-1.66,1.21Z"/>
        <path class="cls-1" d="M72.49,6.09c.06.48-.09.9-.38,1.2s-.7.45-1.15.42c-.78-.04-1.33-.66-1.35-1.39s.51-1.37,1.29-1.45,1.49.4,1.59,1.22Z"/>
        <path class="cls-1" d="M57.01,34.04c-.85-.13-1.32-.9-1.19-1.67s.88-1.27,1.7-1.14,1.27.85,1.16,1.61-.81,1.33-1.67,1.2Z"/>
      </g>
    </g>
  </g>
</svg>