<?xml version="1.0" encoding="UTF-8"?>
<svg id="_Слой_2" data-name="Слой 2" xmlns="http://www.w3.org/2000/svg" viewBox="0 0 192.54 104.31">
  <defs>
    <style>
      .cls-1 {
        fill: #4c4c4c;
      }
    </style>
  </defs>
  <g id="_Слой_1-2" data-name="Слой 1">
    <g>
      <path class="cls-1" d="M102.34,9.14c-1.97-2.34-4.04-4.2-6.12-6.3l-.83-.61-1.18,1.04-1.66,1.44-1.32,1.59-3.09,2.98-20.75,20.75-1.34,1.29-5.7,5.62-1.16,1.08-3.77,3.61v23.44s-1.3-.05-1.3-.05l-.05-20.46-.1-3.44c.37-.66,1.21-1.18,1.77-1.73l6.13-6.08.92-.81,11.47-11.39L93.28,2.04l1.47-1.62.4-.39c.08-.07.27.03.35.1l4.76,4.72.76.76,3.54,3.65h31.47s-.08,21.56-.08,21.56l-.09,10.29.2,1.19c-.71.31-.73-.28-1.03-.57l-3.46-3.45-4.63-4.46-2.22-2.07-1.01-1.07-5.76-5.74-1.04-1.04-7.28-7.29-1.27-1.35-4.37-4.5-8.19.02v54.35s-1.45-.06-1.45-.06V9.28s7.97-.14,7.97-.14ZM130.5,35.15l3.74,3.61.3-2.35V10.73s-28.55.05-28.55.05l19.39,19.42c.55.33.95.65,1.38,1.05l1.85,1.93.93.97.96,1Z"/>
      <path class="cls-1" d="M156.8,86.83l-1.61.19h-7.03s.07-6.08.07-6.08v-3.87s-.05-3.19-.05-3.19l8.36.04c1.81,0,3.14,1.8,2.97,3.4-.15,1.42-.64,2.38-2.17,2.85l1.75,1.04c.91,1.04,1.09,2.36.61,3.6-.43,1.1-1.41,1.86-2.89,2.03ZM157.78,79.03c.99-.77,1.05-1.8.7-2.84-.27-.81-1.13-1.49-2.24-1.49l-7.3-.02v5.38s6.16,0,6.16,0c.85,0,2.02-.52,2.68-1.03ZM158.85,84.62c.24-.61.23-1.54.05-2.02-.49-1.31-1.73-1.75-2.96-1.75l-7,.03v5.36s7.48-.04,7.48-.04c.95,0,2.07-.65,2.43-1.58Z"/>
      <path class="cls-1" d="M94.35,79.99l6.97.08v6.96s-.75,0-.75,0l-.14-.99-1.31.59c-1.91.49-3.83.48-5.78.33-1.28-.1-2.53-.64-3.06-1.79-.49-1.07-.5-2.08-.06-3.1.37-.85.95-1.39,2.07-1.66-.87-.56-1.71-1.26-2.02-2.09-.41-1.11-.23-2.12.32-3.14.37-.69,1.27-1.28,2.15-1.29l4.94-.05c1.99-.02,3.15,1.37,3.18,3.37l-.79-.02c-.11-.58-.2-1.41-.57-1.82-.71-.78-1.88-.92-2.85-.91l-3.29.05c-.92.01-1.96.6-2.25,1.5-.16.5-.21,1.49,0,1.96.55,1.22,1.83,1.98,3.24,1.99ZM97.5,86.22c1.05,0,2.04-.61,3.02-1.07v-4.28s-7.45.04-7.45.04c-1.49,0-2.32,1.31-2.28,2.63.05,1.54,1.03,2.65,2.62,2.66l4.1.02Z"/>
      <path class="cls-1" d="M64.76,86.4l-.88-1.05-1.8-2.15c-.58-.69-1.11-1.22-1.64-2.14l-5.35-.02v6.01s-.78-.11-.78-.11v-13.05c2.98.03,5.84-.13,8.66.08,1.68.13,2.73,1.69,2.9,3.05.19,1.53-.63,3.02-2.18,3.63-.63.25-1.31.18-2.26.31l1.14,1.41.85,1.06.87,1.04,2.02,2.26c-.01.27-.55.44-.83.33-.24-.1-.51-.41-.72-.65ZM64.31,79.29c1.1-1.24.81-3.13-.39-4.13l-1.5-.48h-7.32s-.04,5.6-.04,5.6l6.81-.09c.8-.01,1.93-.34,2.43-.9Z"/>
      <path class="cls-1" d="M191.54,87.03l-3.53-4.31-1.37-1.72c-1.06-.33-2.17-.04-3.21,0l-2.02.1v5.92s-.77-.02-.77-.02v-13.13s8.6.01,8.6.01c.5,0,1.27.53,1.76.71,1.16,1.13,1.39,3.09.82,4.31-.73,1.57-2.26,2.03-4.05,2.01l1.84,2.43,2.93,3.45c-.3.15-.69.24-1,.23ZM189.3,79.97c1.41-.21,2.01-1.51,1.97-2.71-.03-.91-.66-2.5-1.83-2.51l-8.02-.06v5.55s6.32-.02,6.32-.02l1.56-.24Z"/>
      <path class="cls-1" d="M.96,80.85l-.03,5.58,3.55-.11,6.75-.07c.17,0,.45.33.4.46s-.34.34-.48.34H0s0-13.16,0-13.16h10.91s.03.56.03.56c0,.13-.32.23-.46.23H.95s0,5.38,0,5.38h6.95c.11.04.45.13.44.23l-.09.58H.96Z"/>
      <path class="cls-1" d="M172.79,80.85h-7.53s0,5.55,0,5.55l2.76-.12,7.88-.03c.13,0,.29.48.19.57s-.43.23-.58.23h-11.02s0-13.17,0-13.17h11.03s.05.56.05.56c.01.11-.31.19-.45.23h-9.86s0,5.55,0,5.55c.92.02,1.6-.03,2.38-.17l4.64.02.48.17c.11.04.07.26.03.6Z"/>
      <path class="cls-1" d="M48.12,80.08c.14,0,.59.13.7.17s.07.22.08.6l-7.22.02v5.57s4.04-.1,4.04-.1l6.28-.09.37.36c.1.09-.2.35-.37.44h-11.09s0-13.17,0-13.17h10.25c.16.14.32.32.37.44s-.3.31-.44.31l-1.08.02-8.32.03v5.35c.26.33,1,.06,1.4.06h5.04Z"/>
      <path class="cls-1" d="M68.83,104.21l-.96.02-.1-6.62-3.23,5.76c-.66.02-.76-.55-.97-.96-.83-1.63-1.55-3.08-2.71-4.63l-.1,6.44h-.96s0-8.68,0-8.68c.42,0,1.1.03,1.39.12l.67,1.45,2.44,4.37,1.66-2.89,1.75-3.03h1.26s-.07,3.66-.07,3.66l-.08,5Z"/>
      <path class="cls-1" d="M34.94,78.49l-1.52,1.78.96,1.24,1.36,1.55,1.2,1.37,1.14,1.3.98,1.18c-.66.32-1.17.09-1.59-.39l-1.36-1.57-3.35-3.91-3.74,4.18-.87,1.02c-.29.34-.68.81-1.16.53v-12.89s.76-.01.76-.01v11.12c.65-.19.8-.6,1.14-.97l1.49-1.63,2.29-2.49.94-1.11,1.14-1.28,1.79-1.98.89-1.05c.14-.17.37-.64.57-.61l.86.09-1.83,2.28-.87,1.05-1.2,1.21Z"/>
      <path class="cls-1" d="M114.7,86.37l1.79-1.92,1.26-1.45,1.44-1.65.96-1.09,1.63-1.8,1.57-1.73,1.79-2.13c-1.34-.22-2.27.04-3.41.04l-6.04.04v-.81s11.11.03,11.11.03l-2.51,2.99-3.1,3.53-4.79,5.38-.21.44c-.04.08.39.02.5.04,1.13.21,2.5.03,3.68.02l7.14-.08-.11.82h-12.5c-.15-.04-.39-.13-.45-.22-.08-.11.14-.34.25-.46Z"/>
      <path class="cls-1" d="M51.99,104.2l-1.13.02-.1-6.26-2.95,5.04c-.07.12-.23.31-.32.38-.11.08-.46-.11-.53-.24l-3.11-5.34-.1,6.44h-.96s-.02-8.7-.02-8.7h1.12s3.4,6.08,3.4,6.08l2.52-4.28.94-1.79,1.17-.02c.13,1.09-.05,2.15-.05,3.31v4.3s.13,1.05.13,1.05Z"/>
      <path class="cls-1" d="M97.88,99.57c1.24,1.07,1.82,1.33,1.49,3.1-.49.69-1.24,1.48-2.2,1.5l-5.06.07v-8.7s4.86.08,4.86.08c.96.02,1.63.93,1.84,1.58.31.94-.09,1.73-.93,2.37ZM97.74,97.88c.1-.78-.63-1.22-1.27-1.2-1.79.05-2.87-.45-3.43.03l.05,2.61h2.7c.85.01,1.82-.36,1.96-1.44ZM98.22,102.36c.47-.98-.51-2.03-1.43-2.04l-3.73-.06.02,2.98,2.89.04c.71,0,1.86-.12,2.25-.91Z"/>
      <path class="cls-1" d="M142.31,74.56c0-.16.04-.65.16-.66l.78-.03-.03,8.2c0,1.2-.62,2.18-1.39,3.1-1.68,2.02-5.48,2.46-7.51,1.24-1.32-.79-2.59-2.24-2.6-3.79l-.07-8.72.8-.08.04,7.81c0,1.02.32,2.18.99,2.86l.96.98c1.89,1.41,4.71,1,6.37-.48.98-.87,1.54-1.84,1.53-3.11l-.02-7.31Z"/>
      <path class="cls-1" d="M157.53,104.18c-.53.2-.9-.13-1.24-.54l-1-1.22-1.44-1.65-.97-1.11-1.12-1.29c-.22-.25-.37-.4-.77-.64l-.03,6.5-.92-.02-.05-7.76c0-.21-.2-.76-.02-.84.28-.12.74-.06.9.11l1.55,1.63,1.02,1.17.95,1.13.94,1.11c.31.37.49.6,1.02.94l.03-6.17h.93s.09,5.35.09,5.35l.09,3.3Z"/>
      <path class="cls-1" d="M79.78,104.29c-1.37-.13-2.42-.8-3.14-1.94-1.12-1.76-.97-3.89.48-5.48,1.76-1.93,4.52-2.02,6.45-.25,1.05.96,1.59,2.1,1.44,3.65-.24,2.55-2.66,4.27-5.23,4.02ZM77.6,97.98c-1.07,1.5-.51,3.7.88,4.74,1.49,1.11,3.49.69,4.58-.55,1.19-1.35,1.13-3.35-.09-4.7-1.1-1.21-3.34-1.68-4.56-.36l-.81.87Z"/>
      <path class="cls-1" d="M14.67,81.92c.93,3.31,4.68,5.1,7.78,3.82.8-.33,1.5-.76,2.03-1.56.25-.03.75.44.68.67-1.22,1.55-3,2.06-4.82,2.06s-3.33-.58-4.66-1.84c-2.17-2.03-2.78-5.12-1.19-7.83.38-.65,1.02-1.5,1.63-1.99,2.6-2.1,7.15-1.89,8.86.7.05.07.1.51.02.52l-.47.07c-1.71-2.36-5.73-2.43-7.42-.88l-1.26,1.16c-1.37,1.26-1.68,3.29-1.17,5.1Z"/>
      <polygon class="cls-1" points="141.96 99.95 137.67 99.93 137.81 103.24 143.08 103.26 143.02 104.25 136.64 104.22 136.64 95.53 142.72 95.53 142.72 96.67 137.73 96.69 137.79 98.96 141.85 98.97 141.96 99.95"/>
      <path class="cls-1" d="M74.64,77.56l.04,9.44-.95.12v-12.43s-5.5-.03-5.5-.03v-.79s11.19,0,11.19,0c.09,0,.55.03.55.15v.65s-5.44.01-5.44.01l.11,2.88Z"/>
      <polygon class="cls-1" points="138.44 65 137.15 65.03 137.16 52.03 138.44 52.05 138.44 65"/>
      <path class="cls-1" d="M120.95,103.28c.23,0,.37.63.26.95h-5.88s-.01-8.7-.01-8.7h1.11s.02,7.7.02,7.7l4.5.05Z"/>
      <path class="cls-1" d="M107.68,104.24h-1.13s0-8.68,0-8.68c.53-.22.84-.31,1.1-.04l.02,8.71Z"/>
      <path class="cls-1" d="M128.66,104.24h-.96s0-8.69,0-8.69c.22-.24.92-.25,1.06,0,.09,1.04.04,2.07-.1,3.1v5.59Z"/>
      <polygon class="cls-1" points="34.97 104.24 34.02 104.25 34.02 95.53 34.97 95.53 34.97 104.24"/>
    </g>
  </g>
</svg>