<?xml version="1.0" encoding="UTF-8"?>
<svg id="_Слой_2" data-name="Слой 2" xmlns="http://www.w3.org/2000/svg" viewBox="0 0 18.41 17.19">
  <defs>
    <style>
      .cls-1 {
        fill: none;
        fill-rule: evenodd;
        stroke: #be8e57;
        stroke-miterlimit: 10;
      }
    </style>
  </defs>
  <g id="_Слой_1-2" data-name="Слой 1">
    <path class="cls-1" d="M15.85,11.19c-.74-.44-1.7-.93-2.57-.58-.67.27-1.09,1.32-1.53,1.85-.22.27-.49.32-.83.18-2.51-1-4.43-2.67-5.81-4.98-.23-.36-.19-.64.09-.97.42-.49.94-1.05,1.06-1.71.11-.66-.2-1.44-.47-2.03-.35-.75-.74-1.83-1.5-2.26-.69-.39-1.61-.17-2.23.33C1,1.9.48,3.26.5,4.61c0,.38.05.77.14,1.14.22.89.63,1.72,1.09,2.51.35.6.73,1.17,1.14,1.73,1.34,1.82,3.01,3.4,4.94,4.58.96.59,2,1.11,3.08,1.46,1.21.4,2.28.81,3.58.57,1.36-.26,2.71-1.1,3.25-2.42.16-.39.24-.82.15-1.23-.19-.85-1.34-1.36-2.02-1.77Z"/>
  </g>
</svg>