<?xml version="1.0" encoding="UTF-8"?>
<svg id="_Слой_2" data-name="Слой 2" xmlns="http://www.w3.org/2000/svg" viewBox="0 0 17.73 22.9">
  <defs>
    <style>
      .cls-1 {
        fill: #ac73af;
        fill-rule: evenodd;
      }
    </style>
  </defs>
  <g id="_Слой_1-2" data-name="Слой 1">
    <path class="cls-1" d="M7.42,14.94c-.02.07-.04.12-.05.18-.84,3.3-.93,4.03-1.8,5.56-.41.73-.88,1.42-1.39,2.08-.06.07-.11.17-.23.15-.13-.03-.14-.14-.15-.24-.14-1-.21-2.01-.18-3.02.04-1.32.21-1.77,1.9-8.91.02-.11,0-.2-.04-.3-.41-1.1-.49-2.21-.13-3.34.77-2.44,3.53-2.62,4.01-.61.3,1.24-.49,2.87-1.09,5.27-.5,1.98,1.83,3.39,3.83,1.95,1.84-1.33,2.55-4.54,2.42-6.8-.27-4.52-5.23-5.5-8.37-4.04-3.61,1.67-4.43,6.14-2.8,8.18.21.26.37.42.3.68-.1.41-.2.82-.31,1.23-.08.3-.34.41-.64.29-.6-.24-1.1-.63-1.51-1.13-1.38-1.71-1.78-5.1.05-7.97C3.26.96,7.03-.32,10.47.07c4.11.47,6.71,3.27,7.19,6.46.22,1.45.06,5.03-1.97,7.56-2.34,2.91-6.14,3.1-7.89,1.31-.14-.14-.24-.3-.38-.46Z"/>
  </g>
</svg>