<?xml version="1.0" encoding="UTF-8"?>
<svg id="_Слой_2" data-name="Слой 2" xmlns="http://www.w3.org/2000/svg" viewBox="0 0 24.6 19.32">
  <defs>
    <style>
      .cls-1 {
        fill: #ac73af;
      }
    </style>
  </defs>
  <g id="_Слой_1-2" data-name="Слой 1">
    <path class="cls-1" d="M21.05,0H3.55C1.59,0,0,1.59,0,3.55v12.22c0,1.96,1.59,3.55,3.55,3.55h17.5c1.96,0,3.55-1.59,3.55-3.55V3.55c0-1.96-1.59-3.55-3.55-3.55ZM21.05,1.7c.15,0,.29.02.42.05l-7.38,8.38c-.45.51-1.1.81-1.79.81s-1.34-.29-1.79-.81L3.13,1.75c.14-.03.28-.05.42-.05h17.5ZM22.9,15.77c0,1.02-.83,1.85-1.85,1.85H3.55c-1.02,0-1.85-.83-1.85-1.85V3.55c0-.25.05-.49.14-.7l7.4,8.4c.77.88,1.89,1.38,3.06,1.38s2.29-.5,3.06-1.38l7.4-8.4c.09.22.14.45.14.7v12.22Z"/>
  </g>
</svg>