<?xml version="1.0" encoding="UTF-8"?>
<svg id="_Слой_2" data-name="Слой 2" xmlns="http://www.w3.org/2000/svg" viewBox="0 0 16.39 16.4">
  <defs>
    <style>
      .cls-1 {
        fill: #be8e57;
      }
    </style>
  </defs>
  <g id="_Слой_1-2" data-name="Слой 1">
    <path class="cls-1" d="M8.2,0C3.68,0,0,3.68,0,8.2s3.68,8.2,8.2,8.2,8.2-3.68,8.2-8.2S12.72,0,8.2,0ZM15.24,7.63h-3.08c-.08-2.56-.67-4.72-1.58-6.09,2.56.92,4.44,3.27,4.67,6.09ZM8.2,15.26c-1.28,0-2.7-2.64-2.83-6.5h5.65c-.13,3.86-1.55,6.5-2.83,6.5ZM5.37,7.63c.13-3.86,1.55-6.5,2.83-6.5s2.7,2.64,2.83,6.5h-5.65ZM5.82,1.54c-.91,1.36-1.51,3.53-1.58,6.09H1.16c.22-2.82,2.11-5.17,4.67-6.09ZM1.16,8.76h3.08c.08,2.56.67,4.72,1.58,6.09-2.56-.92-4.44-3.27-4.67-6.09ZM10.57,14.85c.91-1.36,1.51-3.53,1.58-6.09h3.08c-.22,2.82-2.11,5.17-4.67,6.09Z"/>
  </g>
</svg>