<?xml version="1.0" encoding="UTF-8"?>
<svg id="_Слой_2" data-name="Слой 2" xmlns="http://www.w3.org/2000/svg" viewBox="0 0 19.48 19.92">
  <defs>
    <style>
      .cls-1 {
        fill: #4384fc;
      }

      .cls-2 {
        fill: #e54630;
      }

      .cls-3 {
        fill: #f9be00;
      }

      .cls-4 {
        fill: #41aa45;
      }
    </style>
  </defs>
  <g id="_Слой_1-2" data-name="Слой 1">
    <g>
      <path class="cls-2" d="M6.24,5.92c.93-1.01,2.16-1.52,3.7-1.52.89,0,1.67.17,2.33.52.52.27.94.64,1.27,1.1l3.4-3.4c-.33-.33-.69-.63-1.08-.91-1.61-1.13-3.58-1.7-5.92-1.7-1.93,0-3.65.42-5.15,1.27-1.5.85-2.68,2.02-3.52,3.54-.1.18-.19.36-.28.55l3.89,3.89c.12-1.36.57-2.47,1.36-3.33Z"/>
      <path class="cls-4" d="M13.3,14.82c-.81.59-1.8.89-2.97.89-1.71,0-3.05-.51-4.02-1.52-.73-.76-1.19-1.75-1.37-2.95l-3.75,3.75s.05.09.08.14c.84,1.5,2.02,2.68,3.54,3.52,1.51.85,3.24,1.27,5.17,1.27,1.63,0,3.1-.32,4.4-.95.72-.35,1.37-.76,1.95-1.24l-2.96-2.96s-.04.03-.06.05Z"/>
      <path class="cls-3" d="M4.85,9.97c0-.25.01-.49.03-.72L.98,5.35c-.66,1.38-.98,2.92-.98,4.62,0,1.87.4,3.54,1.19,5.01l3.75-3.75c-.06-.4-.09-.82-.09-1.27Z"/>
      <path class="cls-1" d="M10.13,12.26h4.93c-.36,1.08-.93,1.92-1.71,2.51l2.96,2.96c.47-.38.89-.79,1.26-1.24.84-1.02,1.54-2.13,1.89-3.31v-4.54h-9.53l.18,3.62Z"/>
    </g>
  </g>
</svg>