<?xml version="1.0" encoding="UTF-8"?>
<svg id="_Слой_2" data-name="Слой 2" xmlns="http://www.w3.org/2000/svg" viewBox="0 0 19.06 19.06">
  <defs>
    <style>
      .cls-1 {
        fill: #be8e57;
      }
    </style>
  </defs>
  <g id="_Слой_1-2" data-name="Слой 1">
    <g>
      <path class="cls-1" d="M14.57,3.4c-.62,0-1.12.5-1.12,1.12s.5,1.12,1.12,1.12,1.12-.5,1.12-1.12-.5-1.12-1.12-1.12Z"/>
      <path class="cls-1" d="M9.61,4.84c-2.59,0-4.69,2.11-4.69,4.69s2.11,4.69,4.69,4.69,4.69-2.11,4.69-4.69-2.11-4.69-4.69-4.69ZM9.61,12.54c-1.66,0-3.01-1.35-3.01-3.01s1.35-3.01,3.01-3.01,3.01,1.35,3.01,3.01-1.35,3.01-3.01,3.01Z"/>
      <path class="cls-1" d="M13.33,19.06h-7.61c-3.16,0-5.72-2.57-5.72-5.72v-7.61C0,2.57,2.57,0,5.72,0h7.61c3.16,0,5.72,2.57,5.72,5.72v7.61c0,3.16-2.57,5.72-5.72,5.72ZM5.72,1.79c-2.17,0-3.93,1.76-3.93,3.93v7.61c0,2.17,1.76,3.93,3.93,3.93h7.61c2.17,0,3.93-1.76,3.93-3.93v-7.61c0-2.17-1.76-3.93-3.93-3.93h-7.61Z"/>
    </g>
  </g>
</svg>