<?xml version="1.0" encoding="UTF-8"?>
<svg id="_Слой_2" data-name="Слой 2" xmlns="http://www.w3.org/2000/svg" viewBox="0 0 12.65 16.27">
  <defs>
    <style>
      .cls-1 {
        fill: #be8e57;
      }
    </style>
  </defs>
  <g id="_Слой_1-2" data-name="Слой 1">
    <g>
      <path class="cls-1" d="M6.33,16.27h0c-.16,0-.31-.07-.41-.18-.24-.26-5.91-6.4-5.91-9.77S2.84,0,6.33,0s6.33,2.84,6.33,6.33-5.67,9.51-5.91,9.77c-.11.12-.26.18-.41.18ZM6.33,1.13C3.46,1.13,1.13,3.46,1.13,6.33c0,2.23,3.43,6.56,5.19,8.54,1.76-1.98,5.19-6.31,5.19-8.54,0-2.86-2.33-5.19-5.19-5.19Z"/>
      <path class="cls-1" d="M6.33,8.9c-1.57,0-2.85-1.28-2.85-2.85s1.28-2.85,2.85-2.85,2.85,1.28,2.85,2.85-1.28,2.85-2.85,2.85ZM6.33,4.33c-.95,0-1.72.77-1.72,1.72s.77,1.72,1.72,1.72,1.72-.77,1.72-1.72-.77-1.72-1.72-1.72Z"/>
    </g>
  </g>
</svg>