<?xml version="1.0" encoding="UTF-8"?>
<svg id="_Слой_2" data-name="Слой 2" xmlns="http://www.w3.org/2000/svg" viewBox="0 0 22.83 22.88">
  <defs>
    <style>
      .cls-1, .cls-2 {
        fill: #be8e57;
      }

      .cls-2 {
        fill-rule: evenodd;
      }
    </style>
  </defs>
  <g id="_Слой_1-2" data-name="Слой 1">
    <g>
      <path class="cls-1" d="M0,22.88l1.64-6.12c-.93-1.68-1.42-3.55-1.42-5.46C.22,5.07,5.29,0,11.52,0s11.3,5.07,11.3,11.3-5.07,11.3-11.3,11.3c-1.87,0-3.72-.47-5.37-1.37l-6.15,1.65ZM6.46,18.94l.39.23c1.42.85,3.04,1.3,4.68,1.3,5.05,0,9.17-4.11,9.17-9.17S16.58,2.14,11.52,2.14,2.36,6.25,2.36,11.3c0,1.67.46,3.31,1.34,4.75l.24.39-.92,3.42,3.44-.92Z"/>
      <path class="cls-2" d="M15.73,12.87c-.47-.28-1.07-.59-1.62-.36-.42.17-.69.83-.96,1.17-.14.17-.31.2-.52.11-1.58-.63-2.79-1.68-3.66-3.13-.15-.23-.12-.4.06-.61.26-.31.59-.66.66-1.08.07-.42-.12-.91-.3-1.28-.22-.47-.47-1.15-.94-1.42-.44-.25-1.01-.11-1.4.21-.67.55-1,1.41-.99,2.26,0,.24.03.48.09.72.14.56.4,1.08.69,1.58.22.38.46.74.72,1.09.84,1.15,1.89,2.14,3.11,2.89.61.37,1.26.7,1.94.92.76.25,1.44.51,2.26.36.86-.16,1.71-.69,2.05-1.52.1-.25.15-.52.09-.78-.12-.54-.84-.85-1.27-1.11Z"/>
    </g>
  </g>
</svg>